<svg id="Layer_1" data-name="Layer 1" xmlns="http://www.w3.org/2000/svg" viewBox="0 0 1024 754.40459"><title>icon_show_password</title><path d="M1023.32874,374.5948l-.82611-1.067-1.153-1.46289-1.4801-1.85867-1.721-2.23734-2.09924-2.58148-2.40942-2.9429-2.71924-3.25272-3.01178-3.59692-1.61792-1.91028-1.721-1.97919-1.721-2.048-1.84149-2.134-1.91022-2.18561-1.97925-2.27176-2.048-2.32336-2.11682-2.39227-2.23743-2.49548-2.25452-2.52988-2.32336-2.49548-2.39227-2.63312-2.461-2.66754-2.54712-2.73645-2.59869-2.788-2.66748-2.83966-2.7193-2.89124-2.788-2.9429-2.87408-3.01181-2.92578-3.029-2.99463-3.0806-3.04614-3.09781-3.115-3.14941-3.18384-3.13223-3.2699-3.25272-3.30438-3.25272-3.442-3.287-3.442-3.30435-3.442-3.33875-3.54529-3.442-3.597-3.442-3.666-3.442-3.70026-3.442-3.78625-3.442-3.83783-3.442-3.88947-3.442-3.9411-3.442-4.01-3.442-4.0448-3.442-4.11322-3.54526-4.16486-3.442-2.09924-1.721-2.11682-1.721-2.134-1.721-2.134-1.721-2.15125-1.721-2.16852-1.721-2.18561-1.721-2.18561-1.721-2.06531-2.39215-2.22015-1.721-2.23737-1.721-2.23737-1.721-2.25452-1.721-2.27173-1.721-2.289-1.721-2.289-1.721-2.30615-1.721-2.30615-1.721-2.34058-1.721-2.34058-1.721-2.35773-1.721-2.35773-1.721-2.375-1.721-2.39227-1.721-2.40936-1.721-2.40936-1.721-2.42688-1.721-2.44391-1.721-2.44391-1.721-2.461-1.721-2.461-1.721-2.49548-1.721-2.49432-1.72171-2.51263-1.721-2.51263-1.721-2.52991-1.721-2.54712-1.721-2.54712-1.721-2.54712-1.721-2.56427-1.721-2.58148-1.721-2.59869-1.721-2.59869-1.61792-1.35956-.84326L896.37006,47.06958,849.30048,0,723.32288,125.97783l-.74005-.36136-2.83966-1.37677-2.83966-1.35956-2.857-1.34235-2.87408-1.34236-2.87408-1.308-2.89124-1.308-2.89124-1.29074-2.90814-1.29074-2.90814-1.25635-2.92578-1.25635-2.92578-1.239-2.94287-1.22192-2.94287-1.20473-2.94287-1.18784-2.97736-1.17023-2.97736-1.15314-2.97736-1.13582-2.99463-1.11861-2.99463-1.10152-2.99463-1.08421L661.09167,99.784l-3.029-1.0498-3.029-1.03259-3.029-1.03259-3.0462-.9982-3.0462-.981-3.0462-.96379-3.06342-.94658-3.08057-.91219-3.08057-.91219-3.08057-.87769-3.09784-.86015L624.3653,88.374l-3.08069-.86015-3.115-.809-3.115-.79166-3.1322-.75725-3.1322-.74-3.14941-.72282-3.14941-.68845-3.14941-.68845-3.14941-.654-3.16663-.63672-3.16663-.61951-3.16663-.58511-3.1839-.56792-3.201-.53349-3.201-.53349-3.201-.4991-3.21826-.48189-3.21826-.44748-3.21826-.43008-3.20123-.34428-3.23584-.37889-3.23584-.34416-3.25275-.327-3.25275-.29256-3.25275-.27534-3.25275-.25813-3.2699-.22375-3.2699-.18935-3.2699-.17213-3.287-.15492-3.287-.12053-3.30432-.10323H502.05246l-3.30435.10323-3.287.12053-3.26993.15492-3.287.17213-3.26993.18935-3.26993.22375-3.26993.25813-3.25272.27534-3.25272.29256-3.25272.327-3.23587.34416-3.14923.37889-3.21823.39578-3.21823.43008-3.21823.44748-3.201.48189-3.201.4991-3.201.53349-3.1839.53349-3.20114.56792-3.1666.58511-3.1666.61951-3.1666.63672-3.1666.654-3.14941.68845-3.14941.68845-3.14941.72282-3.13223.74-3.115.75725-3.115.79166-3.115.809-3.09781.826-3.09781.84326-3.09781.86015-3.0806.87769-3.0806.91219-3.06338.91219-3.0806.94658-3.0462.96379-3.0462.981-3.029.9982-3.0462,1.03259-3.029,1.03259-3.029,1.0498-2.99457,1.08421-3.01181,1.08421-2.99457,1.10152-2.97739,1.11861-2.97739,1.13582-2.97739,1.15312-2.96021,1.17023-2.96021,1.18784-2.943,1.20473-2.943,1.22192-2.92566,1.239-2.92566,1.25635-2.90817,1.25635L321.5022,116.306l-2.89127,1.29074-2.89127,1.308-2.87405,1.308-2.87405,1.34235-2.857,1.34235L304.2749,124.257l-2.83966,1.37677-2.82245,1.394-2.82245,1.41125-2.80576,1.41125-2.80576,1.42838-2.788,1.44568L284.62,134.17006l-2.77069,1.463-2.771,1.46289-2.75363,1.49728-2.73642,1.49728-2.73642,1.5145-2.71924,1.5145-2.71924,1.53171-2.702,1.53171-2.68472,1.54892-2.68472,1.5661-2.66753,1.5661-2.66753,1.58331-2.65031,1.58331-2.65031,1.60052-2.65031,1.61792L241.44,158.84959l-2.61592,1.61792-2.59871,1.61792-2.59871,1.721-2.5815,1.721-2.5643,1.721-2.5643,1.721-2.54709,1.721-2.54709,1.721-2.52991,1.721-2.5127,1.721-2.5127,1.721-2.49548,1.721-2.49548,1.721-2.46107,1.721-2.46107,1.721-2.44389,1.721-2.44389,1.721-2.40938,1.721-2.40936,1.721-2.39215,1.72159-2.39217,1.721-2.375,1.721-2.35774,1.721-2.35776,1.721-2.34058,1.721-2.34058,1.721-2.30615,1.721-2.30615,1.721-2.289,1.721-2.27174,1.721-2.27174,1.721-2.25455,1.721-2.23734,1.721-2.23734,1.721-2.30637,1.6691-2.22014,1.721-2.18562,1.721-2.16853,1.721-2.16853,1.721-2.15121,1.721-2.134,1.721-2.134,1.721-2.11682,1.721-2.0992,1.721-4.16481,3.442-4.1132,3.54526-4.06159,3.442-3.99278,3.442-3.94106,3.442-3.88946,3.442-3.83785,3.442-3.769,3.442-3.71712,3.442-3.64852,3.442-3.5969,3.442-3.54529,3.442-3.442,3.33875-3.442,3.30435-3.442,3.287-3.18379,3.92453-3.26994,3.25272-3.16662,3.1839-3.115,3.14941-3.06333,3.098-2.97738,3.0806-2.94288,2.97739-2.857,2.97739-2.80522,2.9415L50.529,317.13026l-2.66752,2.83966-2.59871,2.80573-2.52989,2.75363L40.27185,328.214l-2.40937,2.61591-2.32335,2.5643L33.2846,335.8553l-2.18574,2.44382L28.982,340.69139l-2.048,2.32336-1.97888,2.27136-1.91027,2.18564L21.20344,349.623l-1.721,2.048-1.72138,1.97916-1.61792,1.91028-3.01179,3.59692-2.702,3.25272-2.4094,2.94287-2.0992,2.58151-1.721,2.23734-1.54894,1.82437-1.15312,1.46292-.82606,1.067-.67134.912.67123.87778.82606,1.067,1.15313,1.4801,1.48009,1.87585,1.721,2.23737,2.0992,2.59869,2.40937,2.94287,2.702,3.30432,3.01179,3.61407,1.61792,1.92749,1.721,1.99683,1.721,2.06519,1.84146,2.134,1.91027,2.22009,2.0308,2.35779,2.048,2.34058,2.11681,2.40936,2.18573,2.47809,2.25454,2.52991,2.34056,2.54712,2.39217,2.65033,2.46108,2.702,2.52989,2.7536,2.59871,2.80573,2.66752,2.857,2.71923,2.92578,2.80525,2.96021,2.857,2.99457,2.92567,3.0462,2.97738,3.09784,3.0634,3.1322,3.115,3.16663,3.16662,3.201,3.30435,3.2699,3.30435,3.287,3.442,3.30432,3.442,3.33875,3.442,3.442,3.54529,3.442,3.47648,3.32153,3.64852,3.442,3.71712,3.442,3.769,3.442,3.83785,3.442,3.88946,3.442,3.94106,3.442,3.99278,3.54529,4.06158,3.54529,4.11321,3.54529,4.16481,3.5625,2.0992,1.72107,2.11682,1.72107,2.134,1.72107,2.134,1.721,2.15121,1.721,2.16853,1.721,2.16853,1.721,2.18562,1.721,2.22014,1.721,2.22014,1.721,2.23734,1.721,2.23734,1.721,2.25455,1.721,2.27174,1.721,2.27174,1.721,2.289,1.721,2.30615,1.721,2.30615,1.721,2.34058,1.721,2.34058,1.721,2.35776,1.721,2.35776,1.721,2.375,1.721,2.39217,1.721,2.39217,1.721,2.40936,1.721,2.40938,1.721,2.44389,1.721,2.44389,1.721,2.46107,1.721,2.46107,1.721,2.49548,1.721,2.49548,1.721,2.5127,1.721,2.5127,1.721,2.52991,1.721,2.54709,1.721,2.54709,1.721,2.5643,1.721,2.5643,1.721,2.5815,1.721,2.59871,1.721,2.59871,1.721,2.61592,1.635,2.61592,1.61792L246.62,595.866l2.65031,1.61792.92937.568-108.16449,109.283,47.06952,47.0697,122.3981-122.36377,1.34235.63672,2.87405,1.34253,2.89127,1.32526,2.89127,1.308,2.89127,1.29077,2.90817,1.29077,2.92566,1.25635,2.92566,1.25635,2.943,1.222,2.943,1.222,2.96021,1.18781,2.9602,1.18781,2.97739,1.153,2.97739,1.153,2.97739,1.13586,2.99457,1.1015,3.01181,1.1015,2.99457,1.08423,3.029,1.04987,3.029,1.04987,3.0462,1.03259,3.029.99823,3.0462.99823,3.0462.96375,3.0806.94647,3.06338.94647,3.0806.91217,3.0806.895,3.09781.87775,3.09781.84326,3.09781.84326,3.115.809,3.115.79163,3.115.75726,3.13223.75726,3.14941.72284,3.14941.70557,3.14941.68842,3.1666.65405,3.1666.63672,3.1666.61951,3.1666.58521,3.20114.58521,3.1839.55072,3.201.53351,3.201.49908,3.201.48187,3.21823.44751,3.21823.43005,3.21823.39575,3.23587.37891,3.23587.36145,3.25272.327,3.25272.2926,3.25272.2926,3.26993.241,3.26993.22375,3.26993.20654,3.287.172,3.26993.15491,3.287.12054,3.30435.086h19.826l3.30432-.086,3.287-.12054,3.287-.15491,3.2699-.172,3.2699-.20654,3.2699-.22375,3.25275-.241,3.25275-.2926,3.25275-.2926,3.25275-.327,3.23584-.36145,3.23584-.37891,3.21826-.39575,3.21826-.43005,3.21826-.44751,3.21826-.48187,3.201-.49908,3.201-.53351,3.201-.55072,3.1839-.58521,3.16663-.58521,3.16663-.61951,3.16663-.63672,3.14941-.65405,3.14941-.68842,3.14941-.70557,3.14941-.72284,3.1322-.75726,3.1322-.75726,3.115-.79163,3.115-.809,3.115-.84326,3.09784-.84326,3.09784-.87775,3.08057-.895,3.08057-.91217,3.08057-.94647,3.06342-.94647,3.0462-.96375,3.0462-.99823,3.0462-.99823,3.029-1.03259,3.029-1.04987,3.029-1.04987,3.01178-1.08423,2.99463-1.1015,2.99463-1.1015,2.99463-1.13586,2.97736-1.153,2.97736-1.153,2.97736-1.18781,2.94287-1.18781,2.94287-1.222,2.94287-1.222,2.92578-1.25635,2.92578-1.25635,2.90814-1.29077,2.90814-1.29077,2.89124-1.308,2.89124-1.32526,2.87378-1.34247,2.87408-1.34253,2.857-1.35956,2.83966-1.37677,2.83966-1.394,2.82245-1.41125,2.82245-1.41125,2.80579-1.42853,2.80579-1.44568,2.788-1.44568,2.788-1.46283,2.77087-1.46283,2.77087-1.49725,2.75366-1.49725,2.73639-1.51453,2.73639-1.51453,2.71912-1.53174,2.71912-1.54889,2.702-1.54889,2.702-1.5661,2.68469-1.5661,2.66748-1.58325,2.66748-1.60052,2.65033-1.60052,2.65033-1.61792,2.63312-1.61792,2.616-1.61792,2.616-1.635,2.59869-1.721,2.59869-1.721,2.58148-1.721,2.56427-1.721,2.54712-1.721,2.54712-1.721,2.54712-1.721,2.52991-1.721,2.51263-1.721,2.51263-1.721,2.49548-1.721,2.49548-1.721,2.461-1.721,2.461-1.721,2.444-1.72046,2.44391-1.721,2.42688-1.721,2.40936-1.721,2.40936-1.721,2.39227-1.721,2.375-1.721,2.35773-1.721,2.35773-1.721,2.34058-1.721,2.34058-1.721,2.30615-1.721,2.30615-1.721,2.289-1.721,2.289-1.721,2.27173-1.721,2.25452-1.721,2.23737-1.721,2.23737-1.721,2.22015-1.721,2.203-1.721,2.18561-1.721,2.18561-1.721,2.16852-1.721,2.15125-1.721,2.134-1.721,2.134-1.721,2.11682-1.72107,2.09924-1.72107,4.16486-3.5625,4.11322-3.54529,4.0448-3.54529,4.01-3.54529,3.9411-3.442,3.88947-3.442,3.83783-3.442,3.78625-3.442,3.70026-3.442,3.666-3.442,3.597-3.442,3.54529-3.442,3.442-3.442,3.442-3.33875,3.442-3.30432,3.04639-4.25079,3.23584-3.23584,3.16675-3.201,3.115-3.16663,3.04614-3.1322,2.99463-3.09784,2.92578-3.0462,2.87408-2.99457,2.788-2.96021,2.71924-2.92578,2.66748-2.857,2.59869-2.80573,2.54712-2.7536,2.461-2.702,2.39227-2.65033,2.34058-2.59869,2.25452-2.52991,2.18573-2.47809,2.11682-2.40936,2.048-2.34058,1.97925-2.27179,1.91022-2.22009,1.84149-2.134,1.721-2.06519,1.721-1.99683,1.61792-1.92749,3.01178-3.61407,2.71924-3.30432,2.40942-2.94287,2.09924-2.59869,1.721-2.23737,1.4801-1.87585,1.153-1.4801.82611-1.067.756-.94562ZM298.28552,550.241l-2.461-1.394-2.44388-1.41125-2.44388-1.42853-2.42688-1.44568-2.42691-1.44568-2.40939-1.46283-2.40933-1.46289-2.39218-1.46283-2.39212-1.48L274.08777,535.75l-2.375-1.49725-2.35776-1.51453-2.35776-1.51453-2.34058-1.53174-2.34058-1.51453-2.34058-1.54889-2.32336-1.54889-2.30615-1.54889-2.30608-1.5661-2.289-1.56641-2.289-1.5661-2.289-1.5661-2.27174-1.58331-2.27174-1.60052-2.25453-1.60052-2.23734-1.60052-2.23734-1.60052-2.22014-1.60052L230.46,506.06224l-2.22-1.61786-2.18571-1.61792-2.18571-1.61792-2.18571-1.635-2.16852-1.635-2.15121-1.635-2.15121-1.72107-2.134-1.72107-2.13385-1.71985-2.11682-1.72107-2.0992-1.72107-2.0992-1.72107-2.0824-1.72107-2.0652-1.72107-2.06526-1.72107-2.048-1.72107-2.03081-1.72107-2.03081-1.72107-2.0136-1.72107-1.9968-1.72107-1.9968-1.72107L184.32,468.76811l-1.962-1.72107-1.92758-1.635-3.92387-2.20282-3.83784-3.442-3.78622-3.30432-3.66592-3.21826-3.68292-3.30432-3.63132-3.287-3.5797-3.2699-3.54529-3.25275-3.442-3.23584-3.442-3.21826-3.442-3.201-3.32155-3.1839-3.25273-3.14941-3.21832-3.1322-3.14941-3.09784-3.0978-3.08057-3.029-3.029-2.97738-3.01178-2.92567-2.97736-2.857-2.94287-2.80524-2.89124-2.73644-2.857-2.73633-2.75354L101.7285,391.598l-2.5645-2.736-2.49549-2.68475-2.42678-2.63312-2.375-2.58148-2.375-2.5816-2.23733-2.47809-.241-.27536,2.23733-2.461,2.30621-2.49548,2.35776-2.5643,2.44388-2.61591,2.49549-2.66754,2.68482-2.788,2.61591-2.75363,2.68482-2.80573,2.73644-2.83966,2.80524-2.87405,2.857-2.92578,2.92567-2.9429,2.97738-2.97739,3.029-3.029,3.0978-3.0462,3.14941-3.0806,3.20113-3.09781,3.26994-3.13223,3.32155-3.14941,3.442-3.1839,3.442-3.201,3.442-3.201,3.52809-3.23587,3.5797-3.23587,3.64851-3.25272,3.68291-3.26993,3.68291-3.25262,3.78622-3.287,3.83784-3.287,3.92387-3.33875,1.92758-1.61792,1.962-1.721,1.97919-1.721,1.9968-1.721,2.0136-1.721,2.0136-1.721,2.03081-1.721,2.03081-1.721,2.0652-1.721,2.0652-1.721,2.0652-1.721,2.0824-1.721,2.0992-1.721,2.11682-1.635,2.11682-1.635,2.134-1.721,2.134-1.61792,2.15121-1.635,2.15121-1.61792,2.16843-1.61792,2.18571-1.61792,2.18571-1.61792,2.18571-1.61792,2.22014-1.60052,2.22014-1.60052,2.23734-1.60052,2.23734-1.60053,2.23734-1.60052,2.27174-1.58331,2.25453-1.5661,2.289-1.5661,2.27174-1.5661,2.289-1.54892,2.289-1.54892,2.30615-1.54892,2.30614-1.54892,2.32336-1.53171,2.34058-1.5145,2.34058-1.5145,2.34058-1.5145,2.35776-1.49731,2.35776-1.49731,2.375-1.49731,2.39218-1.48007,2.39218-1.46289,2.39218-1.46289,2.40936-1.44565,2.40939-1.44565,2.40939-1.42834,2.5127-.48181,2.44388-1.41129,2.44388-1.41129,2.44388-1.394,2.461-1.394,2.46158-1.37421,2.461-1.35956,2.47809-1.35956,2.49548-1.34235,2.49548-1.32516,2.49548-1.308,2.5127-1.308,2.5127-1.29077,2.5127-1.29074,2.5127-1.25635,2.52988-1.25635,2.54712-1.239,2.54712-1.239,2.54712-1.22192,2.5643-1.20474,2.54712-1.18784,2.5643-1.18784,2.5643-1.15311,2.5643-1.15311,2.58151-1.13583,2.58148-1.11862,2.59872-1.10153,2.59872-1.10153,2.59872-1.08423,2.59872-1.067,2.59872-1.0498,2.61591-1.03259,2.61591-1.03259,2.61591-.9982,2.63312-.981,2.61591-.96378,2.63312-.94647,2.63312-.94647,2.6503-.9122,2.6503-.9122,2.6503-.89487,2.6503-.86017,2.6503-.84326,2.6503-.84326,2.66754-.826,2.66754-.79166,2.66754-.79166,2.66754-.75726,2.66754-.75726,2.66754-.74,2.68472-.70563,2.68472-.68845,2.68472-.67123,2.68472-.654,2.68472-.63672,2.68472-.61951,2.68472-.60233,2.68472-.58511,2.7019-.5679,2.702-.53351,2.702-.53351,2.702-.49911,2.71915-.4819,2.71976-.46487,2.702-.44748,2.71915-.43008,2.71963-.39578,2.71915-.37888,2.71915-.36136,2.71915-.34427,2.71915-.327,2.73645-.29257,2.71915-.27536,2.73645-.24094,2.73645-.24094,2.73645-.22375,2.73645-.18924,2.73645-.17212,2.73645-.15491,2.73645-.12054,2.73645-.086h21.9772l2.73645.086,2.73645.12054,2.73645.15491,2.73645.17212,2.73645.18924,2.73645.22375,2.73645.24094,2.73645.24094,2.71912.27536,2.73645.29257,2.71912.327,2.71912.34427,2.71912.36136,2.71912.37888,2.71912.39587,2.71912.43008,2.71912.44748,2.702.46469,2.71912.4819,2.702.49912,2.702.53351,2.702.53351,2.702.5679,2.68475.58511,2.68475.60233,2.68475.61951,2.68475.63672,2.68475.654,2.68475.67123,2.68475.68845,2.68475.70563,2.66754.74,2.66754.75726,2.66754.75726,2.66754.79166,2.66754.79166,2.66754.826,2.66754.84326,2.65033.84326,2.65033.86017,2.65033.89487,2.65033.9122,2.65033.9122,2.63312.94647,2.63312.94647,2.63312.96378,2.61591.981,2.61591.9982,2.61591,1.03259,2.616,1.03259,2.59869,1.0498,2.59869,1.067,2.59869,1.08423,2.59869,1.10153,2.59869,1.10153,2.58148,1.11862.30975.13763-69.528,69.52927-1.20471-.809-1.20471-.809-1.222-.79163-1.222-.77444-1.222-.77444-1.239-.75726-1.25635-.74-1.25665-.74036-1.25635-.72284-1.27356-.72284-1.27356-.70563-1.27356-.68845-1.29071-.67126-1.308-.67126-1.308-.654-1.308-.63672-1.308-.63672-1.32538-.62036-1.32513-.61954-1.34235-.60229-1.34235-.58511-1.34235-.56793-1.35956-.56793-1.35956-.55069-1.35956-.55069-1.37677-.5163-1.37677-.5163-1.37677-.49912-1.394-.48187-1.41132-.48187-1.394-.46469-1.41132-.44751-1.42834-.44751-1.41132-.43008-1.41052-.39566-1.42834-.39587-1.44568-.39587-1.42834-.36136-1.46289-.36136-1.44568-.34427-1.46289-.34427-1.46289-.30978-1.46289-.30978-1.4801-.29254-1.4801-.27536-1.4801-.25815-1.4801-.25815-1.49731-.24094-1.49731-.22375-1.49731-.20651-1.49731-.20651-1.51447-.17215-1.51447-.17215-1.51447-.15491-1.51447-.13763-1.53174-.13763-1.53174-.10321-1.53174-.10321h-15.403l-2.03079.086-2.03079.12051-2.01358.13763-2.01358.17215-2.01358.18921-1.9968.20651-1.97919.24094-1.97919.25815-1.962.29254-1.962.30978-1.962.34427-1.94476.36136-1.92746.37888-1.92746.413-1.92746.43008-1.91028.46469-1.91028.46469-1.8931.49911-1.8931.5163-1.87585.55069-1.85843.568-1.85867.60229-1.84146.61954-1.84146.63672-1.82425.654-1.82425.68845-1.721.68845-1.721.72284-1.721.74-1.721.77444-1.721.77444-1.721.809-1.721.826-1.721.84329-1.721.87778-1.721.87778-1.721.9122-1.721.92938-1.721.94647-1.721.96378-1.721.981-1.63492.9982-1.85867.82617-1.60052,1.0498-1.58331,1.067-1.58331,1.067-1.5661,1.10153-1.54892,1.11862-1.53168,1.13583L417.603,250.613l-1.49731,1.17023-1.49731,1.18784-1.48007,1.20474-1.46289,1.222-1.44565,1.239-1.42847,1.25632-1.42847,1.27356-1.41129,1.29074-1.37677,1.308-1.37677,1.32516-1.35956,1.34235-1.34235,1.35956L399.171,267.1693l-1.308,1.394-1.29074,1.41129-1.27356,1.41129-1.25632,1.42838-1.239,1.44565-1.222,1.46289-1.20474,1.48007-1.18784,1.49731-1.17023,1.49731-1.153,1.53171-1.13647,1.53168-1.11862,1.54892-1.10138,1.54889L382.4248,287.942l-1.0498,1.60052-1.03262,1.5661-1.01538,1.61792-.9982,1.635-.981,1.721-.96378,1.721-.94659,1.721-.92938,1.721-.9122,1.721-.87781,1.72134-.87766,1.721-.84329,1.721-.826,1.721-.809,1.721-.79163,1.721-.75726,1.721-.74,1.721-.72284,1.721-.70563,1.721-.67126,1.82425-.654,1.82425-.63672,1.84146-.61954,1.85867-.60229,1.85867L361.893,331.243l-.55069,1.87585-.5163,1.87585-.49912,1.8931-.48187,1.91028-.44751,1.91028-.43008,1.92746-.41309,1.92746-.39578,1.92746-.36148,1.962-.34418,1.962-.30978,1.962-.29254,1.97919-.25815,1.97919-.24036,1.97836-.20651,1.9968-.18933,2.01358-.17215,2.01358-.13773,2.01358-.12051,2.03079-.086,2.03079v15.403l.086,1.53174.12051,1.53174.12051,1.53174.13773,1.53174.15491,1.51447.17215,1.51447.18933,1.49731.18933,1.49731.20651,1.49731.22375,1.49731.24094,1.4801.25815,1.4801.25815,1.4801.27536,1.4801.29254,1.4801.30978,1.4801.327,1.44568.327,1.46289.34418,1.44568.36148,1.44568.37888,1.44568.39578,1.42834.39578,1.42834.41309,1.42834.41309,1.42834.44751,1.41132.44751,1.41132.46469,1.41132.46469,1.41132.49912,1.394.49912,1.37677.5163,1.37677.53351,1.37677.53351,1.37677.55069,1.35956.56793,1.35956.58511,1.35956.58511,1.34235.60229,1.32513.6023,1.32513.61954,1.32513.63672,1.32513.63672,1.308.67126,1.308.67126,1.29071.68845,1.29071.68845,1.27356.68845,1.27356.72284,1.27356.72284,1.25635.74,1.25635.75726,1.239.75726,1.239.77444,1.222.79163,1.222.79163,1.20471.809,1.20471.809,1.20471-84.32974,84.329ZM556.35034,293.01906,430.5275,418.82475l-.58511-1.18787-.56793-1.20471-.56793-1.222-.55069-1.222-.53351-1.222-.49912-1.239-.49911-1.25635-.48187-1.25635-.46469-1.27356-.44751-1.27356-.41309-1.29071-.39578-1.29071-.39578-1.308-.36148-1.308-.34418-1.32513-.327-1.32513-.30978-1.32513-.29254-1.32513-.25815-1.34235-.25815-1.35956-.24094-1.35956-.20651-1.35956-.18933-1.37677-.17215-1.37677-.15488-1.37677-.13773-1.394-.12051-1.394-.086-1.41132v-12.8732l.10321-1.18784.12051-1.17023.12051-1.17023.13773-1.17023.17215-1.17023.17215-1.17023.18933-1.15311.20636-1.15286.20651-1.15311.22354-1.15262.24094-1.13583.25815-1.13583.25815-1.11862.29254-1.11862.29254-1.11862.30978-1.10153.30978-1.10153.34418-1.10153.34418-1.10153.36148-1.10153.36148-1.08423.39578-1.067.39578-1.067.41309-1.067.41309-1.0498.44751-1.0498.44751-1.0498.46469-1.0498.48187-1.03262.48187-1.01538.49911-1.03262.5163-1.01538.5163-.9982.53351-.9982.55069-.9982.55069-.981.56793-.981.56793-.96378.60229-.96378.60229-.94647.61954-.94647.61954-.92938.63672-.92938.654-.92938.654-.92938.67126-.89487.67126-.89487.68845-.87778.70563-.87778.70563-.87778.72284-.86017.72284-.84329.74-.84329.75726-.826.75726-.826.77444-.826.77444-.809.79163-.79163.79163-.79163.809-.77444.809-.77444.826-.75726.84329-.74.84329-.74.86017-.72284.86017-.72284.87778-.70563.87778-.68845.89487-.68845.89487-.67126.89487-.67126.9122-.67126.92938-.63672.92938-.63672.94647-.61954.94647-.61954.94647-.60229.96378-.60229.981-.58511.981-.56793.981-.55069.9982-.55069.9982-.55069.9982-.5163,1.01538-.5163,1.01538-.49912,1.03262-.48187,1.03262-.48187,1.03262-.46469,1.0498-.44751,1.0498-.44751,1.067-.413,1.067-.413,1.067-.39587,1.067-.37888,1.08423-.37888,1.08423-.36136,1.10153-.34427,1.10153-.34427,1.10153-.327,1.11862-.30978,1.11862-.29254,1.11862-.27536,1.13583-.27536,1.11862-.24094,1.15311-.24094,1.15311-.22375,1.15311-.20651,1.15311-.18921,1.15314-.18921,1.17023-.17215,1.17023-.15491,1.17023-.13763,1.17023-.13763,1.18784-.12051,1.18784-.086h12.856l1.41132.086,1.394.12051,1.37677.13763,1.37677.15491,1.37677.17215,1.37677.18921,1.35956.20651,1.35956.24094,1.35956.25815,1.34235.27536,1.34235.29254,1.32513.30978,1.32513.34427,1.308.34427,1.308.36136,1.308.37888,1.29071.413,1.27356.413,1.27356.44751,1.25635.44751,1.25635.48187,1.25635.49912,1.239.5163,1.239.5163,1.222.55069,1.222.56793,1.20471.58511Zm380.34338,82.8837-2.23737,2.47809-2.30615,2.52991-2.35773,2.58154-2.44373,2.63312-2.49548,2.68475-2.56427,2.73645-2.63318,2.82245-2.68469,2.82245-2.73639,2.857-2.788,2.89124-2.87408,2.94287L905.64685,408.86l-2.97729,3.01178-3.04614,3.0462-3.09784,3.06342-3.1496,3.09772-3.201,3.1322-3.2699,3.14941-3.32153,3.14954-3.442,3.201-3.442,3.21826-3.442,3.23584-3.52814,3.25275-3.57971,3.2699-3.63135,3.287-3.73462,3.2699-3.73462,3.30432-3.78625,3.30432-3.75171,3.356-3.92383,3.356-1.92749,1.635-1.962,1.72107-1.97925,1.72107-1.99683,1.72107-2.01361,1.72107-2.01361,1.72107-2.03076,1.72107L827.633,480.248l-2.048,1.72107-2.06525,1.72107-2.06525,1.72107-2.0824,1.72107-2.09924,1.72107-2.09924,1.72107-2.118,1.72021-2.134,1.72107-2.134,1.72107-2.134,1.72107-2.16852,1.635-2.16852,1.635-2.18561,1.635-2.18561,1.61792-2.203,1.61792-2.22015,1.61792-2.22015,1.61792L789.082,510.4351l-2.23737,1.60052-2.23724,1.60052-2.25452,1.60052-2.27173,1.60052-2.27173,1.58331-2.289,1.5661-2.289,1.5661-2.30615,1.5661-2.30615,1.5661-2.30615,1.54889-2.34058,1.54889-2.34058,1.54889-2.34058,1.51453-2.35773,1.53174-2.35773,1.51453-2.35773,1.51453-2.39227,1.49725-2.39227,1.49725-2.39227,1.4801-2.39227,1.46283-2.40936,1.46283L737.83026,544.27l-2.40936,1.44568-2.42688,1.44568-2.44391,1.42853-2.44391,1.41125-2.44391,1.394-2.461,1.394-2.461,1.394-2.461,1.37677-2.478,1.35956-2.49548,1.35956-2.49548,1.34253-2.49548,1.32526-2.51263,1.32526-2.51263,1.29077-2.51263,1.29077-2.52991,1.29077-2.51263,1.25635-2.54712,1.25635-2.54718,1.239-2.54712,1.23907-2.56427,1.222-2.54712,1.18781-2.56427,1.18781-2.56427,1.18781-2.56427,1.153-2.56427,1.13586-2.58148,1.13586-2.59869,1.11877-2.59869,1.1015-2.59869,1.08423-2.59869,1.08423-2.59869,1.04987-2.61591,1.03259-2.61591,1.03259-2.61591,1.01538-2.63312.99823-2.61591.981-2.63312.96375-2.63312.94647-2.63312.92932-2.65033.91217-2.65033.895-2.65033.87775-2.65033.86017-2.65033.84326-2.66754.82611-2.66754.809-2.66754.79163-2.66754.77448-2.66754.75726-2.66754.74005-2.68475.70557-2.66754.70557-2.63318-.56775-2.68475.65405-2.68475.63672-2.68475.61951-2.68475.60236-2.68475.58521-2.68475.568-2.702.55072-2.702.51636-2.68475.49908-2.71912.48187-2.70227.46283-2.71912.44751-2.71912.43005-2.71912.39575-2.71912.37891-2.71912.36145-2.71912.3443-2.71912.327-2.71912.2926-2.71912.27539-2.71912.25812-2.73645.241-2.71912.20654-2.73645.18921-2.73645.172-2.73645.15491-2.73621.1203-2.73645.10321H501.03748l-2.73645-.10321-2.73645-.12054-2.73645-.15491-2.73645-.172-2.73645-.18921-2.73645-.20654-2.73645-.241-2.71915-.25812-2.71915-.27539-2.71915-.2926-2.71915-.327-2.71915-.3443-2.71915-.36145-2.71915-.37891-2.71915-.39575-2.71915-.43005-2.702-.44751-2.71915-.46466-2.702-.48187-2.702-.49908-2.702-.51636-2.68472-.55072-2.702-.568-2.68472-.58521-2.68472-.60236-2.68475-.61957-2.68472-.63672-2.66812-.65405-2.68472-.68842-2.66754-.70557-2.68472-.70557-2.66754-.74005-2.66754-.75726L409.0495,598.24l-2.66754-.79163-2.66754-.809-2.6503-.82611-2.66754-.84326-2.6503-.86017-2.6503-.87775-2.6503-.895-2.6503-.91217-2.6503-.92932-2.63312-.94647-2.63312-.96375-2.61591-.981-2.61588-.99823-2.61591-1.01538-2.61591-1.03259-2.61591-1.03259-2.59872-1.04987-2.27176-.94647,373.458-373.459.22375.13763,2.42688,1.42838,2.40936,1.44565,2.40936,1.44565,2.39227,1.46289,2.39227,1.46289,2.39227,1.48007,2.375,1.49731,2.375,1.49731,2.35773,1.49731,2.34058,1.5145,2.34058,1.5145,2.34058,1.5145,2.32336,1.53171,2.32336,1.54892,2.30615,1.54892,2.30615,1.54892,2.289,1.54892,2.289,1.5661,2.27173,1.5661,2.25452,1.5661,2.25452,1.58331,2.23737,1.60052,2.23737,1.60052,2.22015,1.60052,2.22015,1.60052,2.22015,1.60052,2.18561,1.61792,2.18561,1.61792,2.18561,1.61792,2.16852,1.61792,2.15125,1.61792,2.15125,1.635,2.134,1.61792,2.134,1.721,2.11682,1.635,2.09924,1.635,2.09924,1.721,2.0824,1.721,2.06525,1.721,2.06525,1.721,2.048,1.721,2.03076,1.721,2.03076,1.721,2.01361,1.721,1.99683,1.721,1.99683,1.721,1.97925,1.721,1.962,1.721,1.92749,1.61792,3.90662,3.33875,3.83783,3.287,3.78625,3.287,3.73462,3.287,3.683,3.26993,3.63135,3.25272,3.57971,3.23587,3.52814,3.23587,3.442,3.201,3.442,3.201,3.44214,3.1839,3.32153,3.14941,3.25275,3.13223,3.2182,3.09781,3.14954,3.0806,3.09784,3.0462,3.04614,3.029,2.97729,2.97739,2.92578,2.9429,2.87408,2.92578,2.788,2.87405,2.73639,2.83966,2.68469,2.80573,2.616,2.75363,2.56427,2.702,2.49548,2.66754,2.42688,2.61591,2.375,2.5643,2.289,2.49548,2.23737,2.461Z" style="fill:#fff"/><path d="M672.809,373.80113l-.01-1.393-.062-1.392-.051-1.393-.051-1.382-.082-1.373-.082-1.392-.102-1.362-.123-1.393-.123-1.362-.133-1.372-.164-1.362-.154-1.362-.174-1.341-.164-1.362-.215-1.341-.204-1.342-.205-1.341-.226-1.342-.235-1.341-.256-1.331-.266-1.321-.277-1.311-.266-1.321-.297-1.331-.307-1.29-.307-1.321-.328-1.291-.328-1.31-.368-1.291-.338-1.29-60.805,60.805-.174.881-.175.86-.184.87-.205.881-.215.86-.205.86-.225.861-.215.86-.225.86-.256.85-.266.839-.236.861-.276.839-.277.83-.297.829-.266.84-.317.829-.287.809-.328.819-.307.83-.328.809-.348.809-.348.788-.338.799-.369.809-.358.788-.379.789-.358.778-.4.789-.389.778-.399.768-.41.778-.42.758-.409.758-.43.757-.43.738-.451.757-.44.738-.451.747-.471.717-.461.737-.46.727-.482.707-.481.727-.502.717-.502.686-.512.706-.522.707-.491.676-.543.686-.532.686-.533.676-.532.665-.553.676-.543.656-.574.655-.563.645-.573.645-.563.635-.584.635-.604.635-.584.625-.604.614-.625.604-.604.604-.614.615-.625.583-.635.604-.614.574-.656.584-.634.563-.656.573-.655.553-.656.563-.665.553-.676.533-.676.532-.686.533-.665.532-.707.523-.686.512-.707.501-.706.502-.707.492-.727.481-.706.471-.717.481-.748.461-.717.471-.737.44-.747.451-.758.45-.737.431-.758.43-.758.409-.768.43-.758.4-.778.389-.778.399-.768.379-.799.379-.788.379-.789.358-.788.369-.809.338-.809.348-.799.338-.819.327-.809.328-.809.297-.829.307-.84.297-.83.307-.829.277-.84.276-.85.256-.839.277-.84.235-.85.246-.86.236-.86.225-.86.225-.861.226-.86.204-.87.195-.86.184-.881.174-.901.185-60.785,60.774,1.291.358,1.29.359,1.311.328,1.31.327,1.29.328,1.311.297,1.301.287,1.331.297,1.321.256,1.331.276,1.341.246,1.321.235,1.342.226,1.341.225,1.342.205,1.341.184,1.362.174,1.342.174,1.382.174,1.362.133,1.352.144,1.382.133,1.362.102,1.393.103,1.351.092,1.403.082,1.393.051,1.372.072,1.393.03,1.392.041h1.403l1.403.01,2.048-.01,2.048-.041,2.038-.051,2.027-.102,2.028-.103,2.017-.153,2.017-.154,1.997-.194,1.997-.226,1.997-.235,1.976-.256,1.956-.297,1.986-.307,1.946-.349,1.935-.358,1.946-.379,1.946-.409,1.914-.431,1.905-.471,1.935-.46,1.895-.502,1.874-.533,1.874-.553,1.874-.563,1.863-.583,1.833-.625,1.843-.635,1.823-.655,1.833-.666,1.802-.707,1.792-.727,1.792-.737,1.772-.758,1.771-.788,1.741-.809,1.731-.829,1.741-.84,1.72-.881,1.71-.88,1.679-.912,1.69-.911,1.649-.963,1.669-.952,1.659-.993,1.617-1.004,1.618-1.014,1.598-1.044,1.587-1.065,1.577-1.085,1.567-1.086,1.546-1.116,1.536-1.137,1.536-1.157,1.495-1.167,1.495-1.188,1.485-1.208,1.454-1.219,1.454-1.239,1.423-1.259,1.413-1.27,1.414-1.28,1.392-1.321,1.362-1.311,1.352-1.341,1.331-1.362,1.341-1.372,1.291-1.383,1.29-1.392,1.27-1.424,1.259-1.444,1.239-1.433,1.219-1.475,1.208-1.464,1.188-1.495,1.167-1.505,1.157-1.516,1.137-1.546,1.096-1.546,1.126-1.567,1.065-1.567,1.065-1.597,1.034-1.608,1.035-1.618.993-1.628,1.003-1.639.963-1.648.932-1.669.921-1.69.912-1.7.901-1.689.86-1.721.84-1.74.829-1.721.809-1.771.768-1.751.778-1.782.738-1.782.727-1.792.686-1.812.686-1.823.655-1.823.635-1.843.625-1.843.583-1.854.574-1.874.543-1.884.522-1.884.491-1.894.492-1.895.461-1.915.43-1.925.409-1.945.379-1.925.369-1.966.317-1.946.328-1.976.276-1.956.277-1.987.246-1.997.225-1.996.164-1.997.174-2.007.143-2.017.113-2.028.092-2.038.072-2.027.03-2.048.021-2.048v-1.413Z" style="fill:#fff"/></svg>